<svg width="25" height="22" viewBox="0 0 25 22" fill="none" xmlns="http://www.w3.org/2000/svg">
<path d="M13 0.5C19.6094 0.5 24.9531 4.90625 24.9531 10.25C24.9531 15.6406 19.6094 20 13 20C11.4531 20 9.95312 19.7656 8.64062 19.3438C7.23438 20.3281 4.98438 21.5 2.125 21.5C1.65625 21.5 1.23438 21.2656 1.04688 20.8438C0.90625 20.4219 0.953125 19.9531 1.28125 19.625C1.32812 19.625 2.78125 18.0312 3.4375 16.2031C1.89062 14.5625 1 12.5 1 10.25C1 4.90625 6.34375 0.5 13 0.5ZM13 17.75C18.3438 17.75 22.75 14.4219 22.75 10.25C22.75 6.125 18.3438 2.75 13 2.75C7.60938 2.75 3.25 6.125 3.25 10.25C3.25 12.2656 4.23438 13.7656 5.07812 14.6562L6.0625 15.6875L5.54688 17C5.3125 17.6562 4.98438 18.3125 4.60938 18.875C5.73438 18.5 6.67188 17.9844 7.32812 17.5156L8.21875 16.8594L9.29688 17.1875C10.4688 17.5625 11.7344 17.75 13 17.75Z" fill="#8D8D8D"/>
</svg>
