<svg width="18" height="21" viewBox="0 0 18 21" fill="none" xmlns="http://www.w3.org/2000/svg">
<path d="M15 14.25C15 13.5859 15.5469 13 16.25 13C16.9141 13 17.5 13.5859 17.5 14.25V16.75C17.5 18.8594 15.8203 20.5 13.75 20.5H3.75C1.64062 20.5 0 18.8594 0 16.75V14.25C0 13.5859 0.546875 13 1.25 13C1.91406 13 2.5 13.5859 2.5 14.25V16.75C2.5 17.4531 3.04688 18 3.75 18H13.75C14.4141 18 15 17.4531 15 16.75V14.25ZM7.85156 0.890625C8.32031 0.382812 9.14062 0.382812 9.60938 0.890625L14.6094 5.89062C15.1172 6.35938 15.1172 7.17969 14.6094 7.64844C14.1406 8.15625 13.3203 8.15625 12.8516 7.64844L10 4.79688V13C10 13.7031 9.41406 14.25 8.75 14.25C8.04688 14.25 7.5 13.7031 7.5 13V4.79688L4.60938 7.64844C4.14062 8.15625 3.32031 8.15625 2.85156 7.64844C2.34375 7.17969 2.34375 6.35938 2.85156 5.89062L7.85156 0.890625Z" fill="#8D8D8D"/>
</svg>
